<svg width="61" height="60" viewBox="0 0 61 60" fill="none" xmlns="http://www.w3.org/2000/svg">
<g clip-path="url(#clip0_104_2802)">
<path d="M56.3479 31.0873V3.76499C56.3479 2.79024 55.5577 2 54.5829 2H7.29511C6.32036 2 5.53012 2.79024 5.53012 3.76499V33.2654C4.67869 33.3894 3.84632 33.7199 3.10997 34.2666C0.788651 35.9126 0.239622 39.5963 2.18405 41.8681L10.1339 51.5057C15.0549 57.2651 20.2825 57.9708 28.0539 57.9708C34.7228 57.9708 37.7043 58.0002 43.5165 56.6758L49.176 55.3222C50.0936 56.6037 51.5505 57.4339 53.1883 57.4339H55.9762C58.7463 57.4339 61 55.0597 61 52.1415V36.3638C61.0001 33.5773 58.9449 31.2885 56.3479 31.0873ZM48.4147 34.718L46.063 33.5235C42.1964 31.5718 37.7259 31.4996 33.7982 33.3256C32.7266 33.7471 30.3894 35.1612 29.1771 35.1139H21.0167C18.3099 35.1139 16.1077 37.316 16.1077 40.0229V41.3101C16.0925 41.2941 16.0766 41.2789 16.0617 41.2627L10.2343 34.9373C9.88164 34.5545 9.48546 34.2342 9.06022 33.9773V16.4663H23.5041V22.9363C23.5041 23.9111 24.2943 24.7013 25.2691 24.7013H36.4063C37.381 24.7013 38.1712 23.9111 38.1712 22.9363V16.4663H52.8181V31.0871C50.7559 31.2465 49.0363 32.7218 48.4147 34.718V34.718ZM27.0339 16.4663H34.6412V21.1713H27.0339V16.4663ZM52.818 12.9363H38.1712V5.52998H52.8181V12.9363H52.818ZM34.6413 5.52998V12.9365H27.034V5.52998H34.6413ZM23.504 5.52998V12.9365H9.0601V5.52998H23.504ZM42.6973 53.2421C37.3282 54.4718 34.0946 54.4221 28.1172 54.4221C20.8219 54.4221 17.297 54.3042 12.8572 49.2594L4.90731 39.6217C3.5245 37.8211 6.02914 35.6954 7.63811 37.3289L13.4655 43.6543C15.0056 45.2794 16.9437 46.1738 19.3325 46.2264H35.4889C36.4637 46.2264 37.2539 45.4362 37.2539 44.4614C37.2539 43.4867 36.4637 42.6964 35.4889 42.6964H19.6376V40.0227C19.6376 39.2623 20.2561 38.6437 21.0166 38.6437H29.177C31.0154 38.7753 33.6689 37.2403 35.2863 36.5264C38.228 35.1586 41.5763 35.2128 44.4684 36.6725L48.1647 38.55V51.9343L42.6973 53.2421ZM57.4701 52.1414C57.4701 53.1132 56.8 53.9038 55.9763 53.9038H53.1884C52.3647 53.9038 51.6947 53.1132 51.6947 52.1414V36.3638C51.6947 35.392 52.3648 34.6012 53.1884 34.6012H55.9763C56.8 34.6012 57.4701 35.3918 57.4701 36.3638V52.1414Z" fill="#242424"/>
</g>
<defs>
<clipPath id="clip0_104_2802">
<rect width="60" height="60" fill="white" transform="translate(0.666687)"/>
</clipPath>
</defs>
</svg>
